simulation
nRows=45
nColumns=15
endheader
time  TH_x TH_y TH_z SC_y  SC_z  SC_x  AC_y  AC_z  AC_x  GH_y  GH_z  GH_yy  EL_x  PS_y
0.022169  0.000000  0.000000  0.000000  -21.692379  5.552818  1.338342  44.382903  5.470488  -1.498092  -1.391096  7.617211  1.055392  6.075530  0.000000
0.022525  0.000000  0.000000  0.000000  -21.685497  5.531058  1.333851  44.393056  5.484677  -1.522721  -1.353451  7.618952  0.988167  6.090566  0.000000
0.022881  0.000000  0.000000  0.000000  -21.678625  5.509014  1.329416  44.403516  5.498931  -1.547460  -1.318022  7.620811  0.923828  6.105582  0.000000
0.023154  0.000000  0.000000  0.000000  -21.673362  5.491911  1.326057  44.411727  5.509903  -1.566499  -1.292448  7.622317  0.876533  6.117096  0.000000
0.023427  0.000000  0.000000  0.000000  -21.668107  5.474641  1.322741  44.420085  5.520903  -1.585583  -1.268335  7.623895  0.831093  6.128612  0.000000
0.023701  0.000000  0.000000  0.000000  -21.662859  5.457205  1.319470  44.428574  5.531927  -1.604704  -1.245738  7.625546  0.787562  6.140136  0.000000
0.023974  0.000000  0.000000  0.000000  -21.657619  5.439602  1.316248  44.437182  5.542973  -1.623857  -1.224706  7.627269  0.745987  6.151675  0.000000
0.024247  0.000000  0.000000  0.000000  -21.652386  5.421833  1.313076  44.445897  5.554036  -1.643034  -1.205281  7.629066  0.706407  6.163232  0.000000
0.024680  0.000000  0.000000  0.000000  -21.644099  5.393306  1.308153  44.459911  5.571615  -1.673492  -1.177851  7.632071  0.647792  6.181617  0.000000
0.025114  0.000000  0.000000  0.000000  -21.635828  5.364364  1.303371  44.474118  5.589218  -1.703981  -1.154671  7.635268  0.594376  6.200083  0.000000
0.025547  0.000000  0.000000  0.000000  -21.627570  5.335007  1.298736  44.488477  5.606837  -1.734486  -1.135824  7.638660  0.546223  6.218647  0.000000
0.025881  0.000000  0.000000  0.000000  -21.621214  5.312107  1.295266  44.499621  5.620415  -1.757991  -1.124295  7.641408  0.512735  6.233028  0.000000
0.026215  0.000000  0.000000  0.000000  -21.614864  5.288963  1.291888  44.510818  5.633992  -1.781494  -1.115388  7.644275  0.482397  6.247484  0.000000
0.026549  0.000000  0.000000  0.000000  -21.608516  5.265576  1.288601  44.522051  5.647564  -1.804989  -1.109113  7.647263  0.455206  6.262022  0.000000
0.026883  0.000000  0.000000  0.000000  -21.602169  5.241946  1.285407  44.533308  5.661129  -1.828475  -1.105469  7.650371  0.431153  6.276648  0.000000
0.027216  0.000000  0.000000  0.000000  -21.595822  5.218075  1.282307  44.544575  5.674682  -1.851948  -1.104453  7.653602  0.410219  6.291369  0.000000
0.027550  0.000000  0.000000  0.000000  -21.589473  5.193963  1.279300  44.555840  5.688222  -1.875406  -1.106053  7.656956  0.392382  6.306189  0.000000
0.027954  0.000000  0.000000  0.000000  -21.581800  5.164525  1.275794  44.569425  5.704551  -1.903715  -1.111453  7.661170  0.374931  6.324226  0.000000
0.028357  0.000000  0.000000  0.000000  -21.574118  5.134741  1.272425  44.582971  5.720852  -1.931998  -1.120613  7.665567  0.361900  6.342424  0.000000
0.028760  0.000000  0.000000  0.000000  -21.566424  5.104610  1.269192  44.596462  5.737122  -1.960256  -1.133490  7.670146  0.353223  6.360790  0.000000
0.029163  0.000000  0.000000  0.000000  -21.558714  5.074135  1.266096  44.609880  5.753357  -1.988490  -1.150034  7.674908  0.348831  6.379331  0.000000
0.029566  0.000000  0.000000  0.000000  -21.550985  5.043318  1.263135  44.623211  5.769554  -2.016699  -1.170192  7.679855  0.348645  6.398054  0.000000
0.029970  0.000000  0.000000  0.000000  -21.543234  5.012161  1.260308  44.636442  5.785712  -2.044884  -1.193905  7.684985  0.352585  6.416963  0.000000
0.030373  0.000000  0.000000  0.000000  -21.535459  4.980666  1.257616  44.649560  5.801828  -2.073048  -1.221108  7.690300  0.360568  6.436064  0.000000
0.030805  0.000000  0.000000  0.000000  -21.527082  4.946485  1.254874  44.663501  5.819078  -2.103258  -1.254118  7.696211  0.373536  6.456785  0.000000
0.031238  0.000000  0.000000  0.000000  -21.518669  4.911920  1.252283  44.677285  5.836275  -2.133448  -1.290991  7.702334  0.390952  6.477737  0.000000
0.031671  0.000000  0.000000  0.000000  -21.510217  4.876971  1.249844  44.690901  5.853418  -2.163623  -1.331638  7.708670  0.412704  6.498925  0.000000
0.032104  0.000000  0.000000  0.000000  -21.501724  4.841643  1.247554  44.704336  5.870505  -2.193785  -1.375973  7.715218  0.438680  6.520351  0.000000
0.032537  0.000000  0.000000  0.000000  -21.493185  4.805937  1.245413  44.717582  5.887535  -2.223939  -1.423905  7.721977  0.468768  6.542019  0.000000
0.032969  0.000000  0.000000  0.000000  -21.484597  4.769857  1.243420  44.730629  5.904508  -2.254089  -1.475345  7.728948  0.502855  6.563931  0.000000
0.033455  0.000000  0.000000  0.000000  -21.474901  4.728932  1.241358  44.745020  5.923479  -2.287916  -1.537122  7.737019  0.545721  6.588810  0.000000
0.033941  0.000000  0.000000  0.000000  -21.465137  4.687543  1.239480  44.759139  5.942375  -2.321748  -1.603074  7.745354  0.593324  6.614001  0.000000
0.034341  0.000000  0.000000  0.000000  -21.457040  4.653104  1.238070  44.770558  5.957882  -2.349625  -1.660444  7.752417  0.635982  6.634987  0.000000
0.034740  0.000000  0.000000  0.000000  -21.448893  4.618354  1.236783  44.781783  5.973337  -2.377513  -1.720491  7.759658  0.681664  6.656187  0.000000
0.035140  0.000000  0.000000  0.000000  -21.440693  4.583295  1.235619  44.792808  5.988738  -2.405416  -1.783146  7.767075  0.730286  6.677601  0.000000
0.035540  0.000000  0.000000  0.000000  -21.432438  4.547928  1.234577  44.803630  6.004086  -2.433338  -1.848341  7.774669  0.781764  6.699230  0.000000
0.035940  0.000000  0.000000  0.000000  -21.424127  4.512257  1.233657  44.814245  6.019380  -2.461282  -1.916008  7.782438  0.836019  6.721073  0.000000
0.036562  0.000000  0.000000  0.000000  -21.411088  4.456191  1.232468  44.830333  6.043053  -2.504784  -2.025978  7.794866  0.925708  6.755463  0.000000
0.037184  0.000000  0.000000  0.000000  -21.397903  4.399399  1.231573  44.845906  6.066592  -2.548360  -2.141520  7.807714  1.021623  6.790369  0.000000
0.037661  0.000000  0.000000  0.000000  -21.387693  4.355376  1.231086  44.857489  6.084545  -2.581825  -2.233719  7.817848  1.099192  6.817476  0.000000
0.038138  0.000000  0.000000  0.000000  -21.377392  4.310935  1.230770  44.868762  6.102419  -2.615345  -2.328949  7.828225  1.180129  6.844884  0.000000
0.038614  0.000000  0.000000  0.000000  -21.366996  4.266079  1.230627  44.879722  6.120211  -2.648928  -2.427106  7.838847  1.264314  6.872590  0.000000
0.039091  0.000000  0.000000  0.000000  -21.356504  4.220813  1.230656  44.890368  6.137920  -2.682579  -2.528089  7.849712  1.351628  6.900592  0.000000
0.039568  0.000000  0.000000  0.000000  -21.345914  4.175138  1.230858  44.900699  6.155547  -2.716302  -2.631802  7.860818  1.441957  6.928888  0.000000
0.040301  0.000000  0.000000  0.000000  -21.329425  4.104084  1.231506  44.915974  6.182496  -2.768335  -2.796463  7.878376  1.586548  6.972987  0.000000
